<svg id="Layer_1" data-name="Layer 1" xmlns="http://www.w3.org/2000/svg" viewBox="0 0 534.69 76.19"><defs><style>.cls-1{fill:#5333ee;}</style></defs><title>Untitled-1</title><path class="cls-1" d="M616.91,467.25a38.83,38.83,0,0,1-2.9,15,37.72,37.72,0,0,1-7.87,12,36.85,36.85,0,0,1-11.68,8,36.53,36.53,0,0,1-28.67,0,36.84,36.84,0,0,1-19.62-20,38.83,38.83,0,0,1-2.89-15A39.36,39.36,0,0,1,546.17,452,37.34,37.34,0,0,1,554.08,440a36.8,36.8,0,0,1,11.71-8,35.62,35.62,0,0,1,14.3-2.89,37.66,37.66,0,0,1,14.37,2.72,34.76,34.76,0,0,1,11.68,7.74A36.65,36.65,0,0,1,614,451.6,40.74,40.74,0,0,1,616.91,467.25Zm-18.51,0A21.3,21.3,0,0,0,597,459.2,19.06,19.06,0,0,0,593,453a17,17,0,0,0-5.82-4,19,19,0,0,0-14.2,0,16.68,16.68,0,0,0-5.79,4,19.06,19.06,0,0,0-3.87,6.19,21.9,21.9,0,0,0-1.41,8.05,20.88,20.88,0,0,0,1.41,7.74,19.5,19.5,0,0,0,3.87,6.19,18.15,18.15,0,0,0,5.79,4.14,17,17,0,0,0,7.1,1.51,18,18,0,0,0,7.1-1.41,17.71,17.71,0,0,0,5.82-4,18.64,18.64,0,0,0,3.94-6.19A21.42,21.42,0,0,0,598.4,467.25Z" transform="translate(-479.31 -429.09)"/><path class="cls-1" d="M695.73,467.25a38.83,38.83,0,0,1-2.9,15,37.72,37.72,0,0,1-7.87,12,36.85,36.85,0,0,1-11.68,8,36.53,36.53,0,0,1-28.67,0,36.84,36.84,0,0,1-19.62-20,38.83,38.83,0,0,1-2.89-15A39.36,39.36,0,0,1,625,452,37.34,37.34,0,0,1,632.9,440a36.91,36.91,0,0,1,11.71-8,35.66,35.66,0,0,1,14.3-2.89,37.66,37.66,0,0,1,14.37,2.72A34.76,34.76,0,0,1,685,439.55a36.65,36.65,0,0,1,7.87,12.05A40.74,40.74,0,0,1,695.73,467.25Zm-18.51,0a21.3,21.3,0,0,0-1.45-8.05,19,19,0,0,0-3.93-6.19,17.12,17.12,0,0,0-5.83-4,19,19,0,0,0-14.2,0,16.68,16.68,0,0,0-5.79,4,19.23,19.23,0,0,0-3.87,6.19,21.9,21.9,0,0,0-1.41,8.05,20.88,20.88,0,0,0,1.41,7.74,19.67,19.67,0,0,0,3.87,6.19,18.15,18.15,0,0,0,5.79,4.14,17,17,0,0,0,7.1,1.51,17.91,17.91,0,0,0,12.93-5.38,18.62,18.62,0,0,0,3.93-6.19A21.42,21.42,0,0,0,677.22,467.25Z" transform="translate(-479.31 -429.09)"/><path class="cls-1" d="M723.52,504.71H708.78a2.5,2.5,0,0,1-2.5-2.5q.06-28.68.11-57.34a2.52,2.52,0,0,1,.86-1.88l14.63-12.72a2.49,2.49,0,0,1,4.13,1.88v70.06A2.49,2.49,0,0,1,723.52,504.71Z" transform="translate(-479.31 -429.09)"/><path class="cls-1" d="M779,503.15H746.13A9.15,9.15,0,0,1,737,494h0a9.14,9.14,0,0,1,9.15-9.15H779a4.61,4.61,0,0,0,4.58-4.58,2.52,2.52,0,0,0-1.35-2.56,7.86,7.86,0,0,0-3.23-.6H759.86a22.17,22.17,0,0,1-9-1.82,22.86,22.86,0,0,1-7.27-5,23.14,23.14,0,0,1-4.88-7.3,23.39,23.39,0,0,1,0-17.9A22.68,22.68,0,0,1,750.91,433a22.49,22.49,0,0,1,9-1.78h28.06a9.15,9.15,0,0,1,9.16,9.15h0a9.16,9.16,0,0,1-9.16,9.15H759.86a4.61,4.61,0,0,0-4.58,4.58,4.59,4.59,0,0,0,1.35,3.33,4.33,4.33,0,0,0,3.23,1.38H779a25,25,0,0,1,8.89,1.58,22.73,22.73,0,0,1,7.27,4.41,20.76,20.76,0,0,1,6.73,15.48,22,22,0,0,1-1.82,8.92,24,24,0,0,1-4.91,7.27,22.82,22.82,0,0,1-7.27,4.91A22.41,22.41,0,0,1,779,503.15Z" transform="translate(-479.31 -429.09)"/><path class="cls-1" d="M826.94,503.93H814.66a3,3,0,0,1-3-3.05v-66a3,3,0,0,1,3-3.05h0A3.06,3.06,0,0,1,817,432.9l3.19,3.69a3.08,3.08,0,0,0,4.2.39,32.38,32.38,0,0,1,19.56-6.55A31,31,0,0,1,856.37,433a32.14,32.14,0,0,1,10.23,6.93,32.7,32.7,0,0,1,6.9,10.3A31.51,31.51,0,0,1,876,462.74v38.14a3,3,0,0,1-3,3.05H860.7a3.06,3.06,0,0,1-3.05-3.05V462.74a13.43,13.43,0,0,0-1.08-5.35,13.63,13.63,0,0,0-3-4.41,13.84,13.84,0,0,0-4.37-3,13.25,13.25,0,0,0-5.32-1.08,13.84,13.84,0,0,0-5.45,1.08,13.68,13.68,0,0,0-7.4,7.37,13.43,13.43,0,0,0-1.08,5.35v38.14A3.06,3.06,0,0,1,826.94,503.93Z" transform="translate(-479.31 -429.09)"/><path class="cls-1" d="M943.37,496.74a2.92,2.92,0,0,0-4.18-.6c-.79.63-1.59,1.23-2.43,1.82a35.94,35.94,0,0,1-5.28,3.1c-.49.23-1,.45-1.48.65a28.78,28.78,0,0,1-14.94,1.89,32.7,32.7,0,0,1-7.74-2,30.5,30.5,0,0,1-17.2-17.26,37,37,0,0,1-2.52-14v-36.9a2.93,2.93,0,0,1,2.94-2.94H903a2.94,2.94,0,0,1,2.94,2.94v36.9a17.9,17.9,0,0,0,1.11,6.5,14.23,14.23,0,0,0,3,4.81,12.56,12.56,0,0,0,4.41,3,14.51,14.51,0,0,0,5.42,1,11.5,11.5,0,0,0,5.35-1.31,15.13,15.13,0,0,0,4.41-3.47,16.69,16.69,0,0,0,3-4.88,15.12,15.12,0,0,0,1.07-5.62v-36.9a2.94,2.94,0,0,1,2.94-2.94h12.5a2.94,2.94,0,0,1,2.94,2.94v66.2a2.94,2.94,0,0,1-2.94,2.94h0a2.92,2.92,0,0,1-2.38-1.22Z" transform="translate(-479.31 -429.09)"/><path class="cls-1" d="M506.2,431.68h23.08a4.42,4.42,0,0,1,4.42,4.42v9.23a4.41,4.41,0,0,1-4.42,4.41H510.62a4.42,4.42,0,0,0-4.42,4.42v16.71a13.67,13.67,0,0,0,4,9.69,14,14,0,0,0,4.38,3,13.41,13.41,0,0,0,5.38,1.09h9.33A4.42,4.42,0,0,1,533.7,489v9.23a4.42,4.42,0,0,1-4.42,4.42H520a30.87,30.87,0,0,1-12.35-2.49,32.11,32.11,0,0,1-17-17,30.87,30.87,0,0,1-2.49-12.35V454.16a4.42,4.42,0,0,0-4.42-4.42h0a4.4,4.4,0,0,1-4.41-4.41V436.1a4.41,4.41,0,0,1,4.41-4.42h4.42" transform="translate(-479.31 -429.09)"/><path class="cls-1" d="M1011.51,504.71H996.76a2.49,2.49,0,0,1-2.49-2.5q.06-28.68.11-57.34a2.49,2.49,0,0,1,.86-1.88l14.63-12.72a2.49,2.49,0,0,1,4.13,1.88v70.06A2.5,2.5,0,0,1,1011.51,504.71Z" transform="translate(-479.31 -429.09)"/><path class="cls-1" d="M980.51,504.71H965.76a2.49,2.49,0,0,1-2.49-2.5q.06-28.68.11-57.34a2.49,2.49,0,0,1,.86-1.88l14.63-12.72a2.49,2.49,0,0,1,4.13,1.88v70.06A2.5,2.5,0,0,1,980.51,504.71Z" transform="translate(-479.31 -429.09)"/></svg>